# xmcd
#
# Track frame offsets: 
#        150
#        14513
#        29089
#        45525
#        59323
#        72659
#        85562
#        99300
#        112952
#        126005
#        134866
#        147649
#        162753
#        175471
#        189819
#        201796
#        215555
#        227852
#        240576
#        256033
#        270244
#        284890
#        295391
#        308449
#        320510
#        335171
#
# Disc length: 4627 seconds
#
# Revision: 0
# Processed by: cddbd v1.5.2PL0 Copyright (c) Steve Scherf et al.
# Submitted via: ExactAudioCopy v0.95a5
#
DISCID=8e12111a
DTITLE=Hooker, John Lee - Box Set - CD1
DYEAR=2006
DGENRE=Blues
TTITLE0=Boogie Chillin
TTITLE1=Sally Mae
TTITLE2=Black Man Blues - Texas Slim
TTITLE3=Hobo Blues
TTITLE4=Hoogie Boogie
TTITLE5=Weeping Willow Blues
TTITLE6=Crawlin' King Snake
TTITLE7=Driftin' From Door To Door
TTITLE8=Catfish Blues
TTITLE9=Moses Smote Thy Water
TTITLE10=Huckle Up Baby
TTITLE11=Wandering Blues - Texas Slim
TTITLE12=Don't You Remember Me - Texas Slim
TTITLE13=Notorious Woman
TTITLE14=Let Your Daddy Ride
TTITLE15=John L's House Rent Boogie
TTITLE16=Bumble Bee Blues - Johnny Williams
TTITLE17=Leave My Wife Alone - John Lee Booker
TTITLE18=Just Me And My Telephone
TTITLE19=I'm In The Mood
TTITLE20=Blues From The Big Town
TTITLE21=Stuttering Blues - John Lee Booker
TTITLE22=Down Child
TTITLE23=Boogie Rambler
TTITLE24=Baby You Ain't No Good
TTITLE25=I'm Ready
EXTD=
EXTT0=
EXTT1=
EXTT2=
EXTT3=
EXTT4=
EXTT5=
EXTT6=
EXTT7=
EXTT8=
EXTT9=
EXTT10=
EXTT11=
EXTT12=
EXTT13=
EXTT14=
EXTT15=
EXTT16=
EXTT17=
EXTT18=
EXTT19=
EXTT20=
EXTT21=
EXTT22=
EXTT23=
EXTT24=
EXTT25=
PLAYORDER=
